Mirrors 2 (2010) 720p X264 AC3+DTS NLSubs-DMT

PLOT

When Max, who is recovering from a traumatic accident, 
takes a job as a nighttime security guard, 
he begins to see visions of a young mysterious woman in the store's mirror. 
 
http://www.youtube.com/watch?v=cj5FPro4YSE

MM:    http://www.moviemeter.nl/film/68039

IMDB:    http://www.imdb.com/title/tt1576699/

INFO

Source= 720p
Subs from the retail DVD
Added by NLUPPER
Audio1= DTS
Audio 2= AC3 640

Enjoy This Crazy Movie Now In HD



PLAYER INFO

General
Complete name                    : Mirrors.2.2010.720px264AC3.DTS.NLSubs-DMT.mkv
Format                           : Matroska
File size                        : 4.72 GiB
Duration                         : 1h 30mn
Overall bit rate                 : 7 496 Kbps
Encoded date                     : UTC 2010-10-20 12:07:55
Writing application              : mkvmerge v4.3.0 ('Escape from the Island') built on Sep  5 2010 10:30:51
Writing library                  : libebml v1.0.0 + libmatroska v1.0.0

Video
ID                               : 1
Format                           : AVC
Format/Info                      : Advanced Video Codec
Format profile                   : High@L4.1
Format settings, CABAC           : Yes
Format settings, ReFrames        : 5 frames
Format settings, GOP             : M=4, N=32
Muxing mode                      : Container profile=Unknown@4.1
Codec ID                         : V_MPEG4/ISO/AVC
Duration                         : 1h 30mn
Bit rate                         : 5 431 Kbps
Width                            : 1 280 pixels
Height                           : 720 pixels
Display aspect ratio             : 16:9
Frame rate                       : 23.976 fps
Color space                      : YUV
Chroma subsampling               : 4:2:0
Bit depth                        : 8 bits
Scan type                        : Progressive
Bits/(Pixel*Frame)               : 0.246
Stream size                      : 3.27 GiB (69%)
Title                            : twiz-mirrors2-720p
Writing library                  : x264 core 107 r1745 4785e8e
Encoding settings                : cabac=1 / ref=5 / deblock=1:0:0 / analyse=0x3:0x133 / me=umh / subme=7 / 
psy=1 / psy_rd=1.00:0.00 / mixed_ref=1 / me_range=16 / chroma_me=1 / trellis=1 / 8x8dct=1 / cqm=0 / 
deadzone=21,11 / fast_pskip=0 / chroma_qp_offset=-2 / threads=12 / sliced_threads=0 / nr=0 / decimate=1 / 
interlaced=0 / constrained_intra=0 / bframes=3 / b_pyramid=2 / b_adapt=1 / b_bias=0 / direct=1 / weightb=1 / 
open_gop=0 / weightp=2 / keyint=240 / keyint_min=25 / scenecut=40 / intra_refresh=0 / rc_lookahead=40 / rc=2pass / 
mbtree=1 / bitrate=5431 / ratetol=1.0 / qcomp=0.60 / qpmin=10 / qpmax=51 / qpstep=4 / cplxblur=20.0 / qblur=0.5 / 
vbv_maxrate=40000 / vbv_bufsize=40000 / ip_ratio=1.40 / aq=1:1.00 / nal_hrd=none
Language                         : English

Audio #1
ID                               : 2
Format                           : DTS
Format/Info                      : Digital Theater Systems
Muxing mode                      : Header stripping
Codec ID                         : A_DTS
Duration                         : 1h 30mn
Bit rate mode                    : Constant
Bit rate                         : 1 510 Kbps
Channel(s)                       : 6 channels
Channel positions                : Front: L C R, Side: L R, LFE
Sampling rate                    : 48.0 KHz
Bit depth                        : 24 bits
Stream size                      : 974 MiB (20%)
Title                            : twiz-mirrors2-720p-dts
Language                         : English

Audio #2
ID                               : 4
Format                           : AC-3
Format/Info                      : Audio Coding 3
Mode extension                   : CM (complete main)
Muxing mode                      : Header stripping
Codec ID                         : A_AC3
Duration                         : 1h 30mn
Bit rate mode                    : Constant
Bit rate                         : 640 Kbps
Channel(s)                       : 6 channels
Channel positions                : Front: L C R, Side: L R, LFE
Sampling rate                    : 48.0 KHz
Bit depth                        : 16 bits
Stream size                      : 413 MiB (9%)
Title                            : AC3 640
Language                         : English

Text
ID                               : 3
Format                           : UTF-8
Codec ID                         : S_TEXT/UTF8
Codec ID/Info                    : UTF-8 Plain Text
Language                         : Dutch

